<svg xmlns="http://www.w3.org/2000/svg"><symbol id="structure-1" viewBox="0 0 193 220"><path d="M96.3.8l95 54.8v109.6l-95 54.8-94.9-54.8V55.6L96.3.8z"/><path fill="#ff9500" d="M42.7 154.9l-4.1-5.9a1.9 1.9 0 0 1 .1-2.2l15-17.6h-7.4a1.7 1.7 0 0 1-1.8-1.8v-13a1.7 1.7 0 0 1 1.8-1.8h10.4a52.7 52.7 0 0 1-1.9-13.7 42.6 42.6 0 1 1 83.1 13.7h10.5a1.7 1.7 0 0 1 1.8 1.8v13a1.8 1.8 0 0 1-1.8 1.8h-9.2l14.7 17.6a1.8 1.8 0 0 1 0 2.2l-4.1 5.9a1.8 1.8 0 0 1-2.3.5l-8.7-4.5H53.7l-8.7 4.5a1.9 1.9 0 0 1-2.3-.5zm27.4-25.7H58.2l-15.9 18.7 2.6 3.6 30.4-16zm-22-13v9.4h98.5v-9.4zm12.4-3.6h73.6a41.8 41.8 0 0 0 2.2-13.7 39 39 0 0 0-77.9 0c0 4.7.3 9.6 2.1 13.7zm17.3 25.7l-17.1 9h24.5zm-3.1-9.1l15.2 18.1h12.9l15.1-18.1zm40.2 9.1l-7.4 9H132zm19.6-9.1h-11.9l-5.4 6.3 30.6 16 2.5-3.4z"/></symbol><symbol id="structure-2" viewBox="0 0 193 220"><path d="M96.3.8l95 54.8v109.6l-95 54.8-94.9-54.8V55.6L96.3.8z"/><path fill="#ff9500" d="M41.3 150.9a1.8 1.8 0 1 1 0-3.6h9V136h-9a1.7 1.7 0 0 1-1.8-1.8V98.7a1.7 1.7 0 0 1 1.8-1.8h11.8c.9-25.5 20-39.6 43.2-39.6s42.3 14.1 43.2 39.6h11.9a1.7 1.7 0 0 1 1.8 1.8v35.5a1.7 1.7 0 0 1-1.8 1.8h-9v11.3h9a1.8 1.8 0 0 1 0 3.6zm1.8-50.4v31.9h106.5v-31.9zM53.9 136v11.3h11.5V136zm2.8-39.1h79.2c-.9-23.2-18.5-36-39.6-36s-38.7 12.8-39.6 36zM69 136v11.3h18V136zm21.6 0v11.3h11.5V136zm48.8-12.2h-44a1.8 1.8 0 0 1 0-3.6h44a1.8 1.8 0 0 1 0 3.6zM105.7 136v11.3h18V136zm21.6 0v11.3h11.5V136z"/></symbol><symbol id="structure-3" viewBox="0 0 193 220"><path d="M96.3.8l95 54.8v109.6l-95 54.8-94.9-54.8V55.6L96.3.8z"/><path fill="#ff9500" d="M44.3 150.9a1.7 1.7 0 0 1-1.8-1.8v-21.7H18.8a1.8 1.8 0 1 1 0-3.6h13.5v-11.7a1.7 1.7 0 0 1 1.8-1.8h7a57 57 0 0 1 55.1-43.8c.1-.2.3-.2.7 0a56.8 56.8 0 0 1 54.7 43.8h7a1.7 1.7 0 0 1 1.8 1.8v11.7h13.5a1.8 1.8 0 0 1 0 3.6h-23.7v21.7a1.7 1.7 0 0 1-1.8 1.8zm-8.4-37v9.9h120.9v-9.9zm56.8-43.6c-23 1.4-42.3 18.2-47.8 40h19.2zm-46.6 57.1v19.9h48.4v-19.9zm48.4-53.5l-25.9 36.4h25.9zm3.6-3.8v40.2h49.7a53.5 53.5 0 0 0-49.7-40.2zm0 57.3v19.9h8.1v-19.9zm11.7 0v19.9h36.8v-19.9z"/></symbol></svg>
